<mxfile host="65bd71144e">
    <diagram id="FJXhwHptYgPNuSuxnt-G" name="Page-1">
        <mxGraphModel dx="2723" dy="1911" grid="1" gridSize="10" guides="1" tooltips="1" connect="1" arrows="1" fold="1" page="1" pageScale="1" pageWidth="850" pageHeight="1100" math="0" shadow="0">
            <root>
                <mxCell id="0"/>
                <mxCell id="1" parent="0"/>
                <mxCell id="57" value="ReflectionActivity" style="swimlane;fontStyle=1;align=center;verticalAlign=top;childLayout=stackLayout;horizontal=1;startSize=26;horizontalStack=0;resizeParent=1;resizeParentMax=0;resizeLast=0;collapsible=1;marginBottom=0;fillColor=#f5f5f5;strokeColor=#666666;fontColor=#333333;fontSize=14;" parent="1" vertex="1">
                    <mxGeometry x="-85" y="470" width="180" height="106" as="geometry"/>
                </mxCell>
                <mxCell id="58" value="+ ReflectionActivity ()&#10;+ DisplayPrompt ()&#10;+ RunReflection ()" style="text;strokeColor=#666666;fillColor=#f5f5f5;align=left;verticalAlign=top;spacingLeft=4;spacingRight=4;overflow=hidden;rotatable=0;points=[[0,0.5],[1,0.5]];portConstraint=eastwest;fontColor=#333333;fontSize=14;" parent="57" vertex="1">
                    <mxGeometry y="26" width="180" height="72" as="geometry"/>
                </mxCell>
                <mxCell id="59" value="" style="line;strokeWidth=1;fillColor=#f5f5f5;align=left;verticalAlign=middle;spacingTop=-1;spacingLeft=3;spacingRight=3;rotatable=0;labelPosition=right;points=[];portConstraint=eastwest;strokeColor=#666666;fontColor=#333333;fontSize=14;" parent="57" vertex="1">
                    <mxGeometry y="98" width="180" height="8" as="geometry"/>
                </mxCell>
                <mxCell id="69" value="BreathingActivity" style="swimlane;fontStyle=1;align=center;verticalAlign=top;childLayout=stackLayout;horizontal=1;startSize=26;horizontalStack=0;resizeParent=1;resizeParentMax=0;resizeLast=0;collapsible=1;marginBottom=0;fillColor=#f5f5f5;strokeColor=#666666;fontColor=#333333;fontSize=14;" parent="1" vertex="1">
                    <mxGeometry x="-405" y="470" width="170" height="78" as="geometry"/>
                </mxCell>
                <mxCell id="70" value="+ BreathingActivity ()&#10;+ RunBreathing ()" style="text;strokeColor=#666666;fillColor=#f5f5f5;align=left;verticalAlign=top;spacingLeft=4;spacingRight=4;overflow=hidden;rotatable=0;points=[[0,0.5],[1,0.5]];portConstraint=eastwest;fontColor=#333333;fontSize=14;" parent="69" vertex="1">
                    <mxGeometry y="26" width="170" height="44" as="geometry"/>
                </mxCell>
                <mxCell id="71" value="" style="line;strokeWidth=1;fillColor=#f5f5f5;align=left;verticalAlign=middle;spacingTop=-1;spacingLeft=3;spacingRight=3;rotatable=0;labelPosition=right;points=[];portConstraint=eastwest;strokeColor=#666666;fontColor=#333333;fontSize=14;" parent="69" vertex="1">
                    <mxGeometry y="70" width="170" height="8" as="geometry"/>
                </mxCell>
                <mxCell id="74" value="ListingActivity" style="swimlane;fontStyle=1;align=center;verticalAlign=top;childLayout=stackLayout;horizontal=1;startSize=26;horizontalStack=0;resizeParent=1;resizeParentMax=0;resizeLast=0;collapsible=1;marginBottom=0;fillColor=#f5f5f5;strokeColor=#666666;fontColor=#333333;fontSize=14;" parent="1" vertex="1">
                    <mxGeometry x="244" y="470" width="170" height="100" as="geometry"/>
                </mxCell>
                <mxCell id="75" value="+ ListingActivity ()&#10;+ DisplayPrompt ()&#10;+ RunListing ()" style="text;strokeColor=#666666;fillColor=#f5f5f5;align=left;verticalAlign=top;spacingLeft=4;spacingRight=4;overflow=hidden;rotatable=0;points=[[0,0.5],[1,0.5]];portConstraint=eastwest;fontColor=#333333;fontSize=14;fontStyle=0" parent="74" vertex="1">
                    <mxGeometry y="26" width="170" height="66" as="geometry"/>
                </mxCell>
                <mxCell id="76" value="" style="line;strokeWidth=1;fillColor=#f5f5f5;align=left;verticalAlign=middle;spacingTop=-1;spacingLeft=3;spacingRight=3;rotatable=0;labelPosition=right;points=[];portConstraint=eastwest;strokeColor=#666666;fontColor=#333333;fontSize=14;" parent="74" vertex="1">
                    <mxGeometry y="92" width="170" height="8" as="geometry"/>
                </mxCell>
                <mxCell id="80" value="The BreathingActivity has 2 methods, a constructor and a method to administer the main activities of the activity." style="whiteSpace=wrap;html=1;fontSize=14;fillColor=#f5f5f5;strokeColor=#666666;fontColor=#333333;" parent="1" vertex="1">
                    <mxGeometry x="-500" y="650" width="310" height="138.25" as="geometry"/>
                </mxCell>
                <mxCell id="82" value="The ListingActivity class has again 3 methods a constructor&amp;nbsp;" style="whiteSpace=wrap;html=1;fontSize=14;fillColor=#f5f5f5;strokeColor=#666666;fontColor=#333333;" parent="1" vertex="1">
                    <mxGeometry x="239" y="650" width="310" height="138.25" as="geometry"/>
                </mxCell>
                <mxCell id="83" value="The ReflectionActivity has 3 methods, a constructor and a method to administer the main activities of the activity." style="whiteSpace=wrap;html=1;fontSize=14;fillColor=#f5f5f5;strokeColor=#666666;fontColor=#333333;" parent="1" vertex="1">
                    <mxGeometry x="-127.5" y="650" width="265" height="138.25" as="geometry"/>
                </mxCell>
                <mxCell id="95" value="The DisplayMenu Method does just that." style="whiteSpace=wrap;html=1;fontSize=14;fillColor=#f5f5f5;strokeColor=#666666;fontColor=#333333;" parent="1" vertex="1">
                    <mxGeometry x="169" y="-69" width="310" height="138.25" as="geometry"/>
                </mxCell>
                <mxCell id="99" value="Activity" style="swimlane;fontStyle=1;align=center;verticalAlign=top;childLayout=stackLayout;horizontal=1;startSize=26;horizontalStack=0;resizeParent=1;resizeParentMax=0;resizeLast=0;collapsible=1;marginBottom=0;fillColor=#f5f5f5;strokeColor=#666666;fontColor=#333333;fontSize=14;" vertex="1" parent="1">
                    <mxGeometry x="-105" y="171.13" width="210" height="212" as="geometry"/>
                </mxCell>
                <mxCell id="100" value="* _name: string&#10;* _description: string&#10;* _duration: int&#10;* _prompts: List&lt;strings&gt;" style="text;strokeColor=#666666;fillColor=#f5f5f5;align=left;verticalAlign=top;spacingLeft=4;spacingRight=4;overflow=hidden;rotatable=0;points=[[0,0.5],[1,0.5]];portConstraint=eastwest;fontColor=#333333;fontSize=14;" vertex="1" parent="99">
                    <mxGeometry y="26" width="210" height="78" as="geometry"/>
                </mxCell>
                <mxCell id="101" value="" style="line;strokeWidth=1;fillColor=#f5f5f5;align=left;verticalAlign=middle;spacingTop=-1;spacingLeft=3;spacingRight=3;rotatable=0;labelPosition=right;points=[];portConstraint=eastwest;strokeColor=#666666;fontColor=#333333;fontSize=14;" vertex="1" parent="99">
                    <mxGeometry y="104" width="210" height="8" as="geometry"/>
                </mxCell>
                <mxCell id="102" value="+ DisplayStartingMessage ()&#10;+ DisplayEndingMessage ()&#10;+ Pause ()&#10;+ Timer ()&#10;+ DisplayAnimation ()" style="text;strokeColor=#666666;fillColor=#f5f5f5;align=left;verticalAlign=top;spacingLeft=4;spacingRight=4;overflow=hidden;rotatable=0;points=[[0,0.5],[1,0.5]];portConstraint=eastwest;fontColor=#333333;fontSize=14;" vertex="1" parent="99">
                    <mxGeometry y="112" width="210" height="100" as="geometry"/>
                </mxCell>
                <mxCell id="105" value="Extends" style="endArrow=block;endSize=16;endFill=0;html=1;exitX=0.472;exitY=0;exitDx=0;exitDy=0;exitPerimeter=0;" edge="1" parent="1" source="57" target="102">
                    <mxGeometry width="160" relative="1" as="geometry">
                        <mxPoint x="50" y="360" as="sourcePoint"/>
                        <mxPoint x="210" y="360" as="targetPoint"/>
                    </mxGeometry>
                </mxCell>
                <mxCell id="109" value="" style="endArrow=none;html=1;exitX=0.5;exitY=0;exitDx=0;exitDy=0;" edge="1" parent="1" source="69">
                    <mxGeometry width="50" height="50" relative="1" as="geometry">
                        <mxPoint x="-192" y="450" as="sourcePoint"/>
                        <mxPoint x="-320" y="420" as="targetPoint"/>
                    </mxGeometry>
                </mxCell>
                <mxCell id="110" value="" style="endArrow=none;html=1;" edge="1" parent="1">
                    <mxGeometry width="50" height="50" relative="1" as="geometry">
                        <mxPoint x="-320" y="421" as="sourcePoint"/>
                        <mxPoint x="-30" y="421" as="targetPoint"/>
                    </mxGeometry>
                </mxCell>
                <mxCell id="111" value="" style="endArrow=none;html=1;" edge="1" parent="1">
                    <mxGeometry width="50" height="50" relative="1" as="geometry">
                        <mxPoint x="30" y="421" as="sourcePoint"/>
                        <mxPoint x="330" y="421" as="targetPoint"/>
                    </mxGeometry>
                </mxCell>
                <mxCell id="113" value="" style="endArrow=none;html=1;exitX=0.5;exitY=0;exitDx=0;exitDy=0;" edge="1" parent="1" source="74">
                    <mxGeometry width="50" height="50" relative="1" as="geometry">
                        <mxPoint x="339" y="460" as="sourcePoint"/>
                        <mxPoint x="330" y="420" as="targetPoint"/>
                    </mxGeometry>
                </mxCell>
                <mxCell id="114" value="" style="verticalAlign=bottom;html=1;endArrow=none;edgeStyle=orthogonalEdgeStyle;startFill=1;startSize=12;startArrow=diamondThin;exitX=0.5;exitY=1;exitDx=0;exitDy=0;entryX=0.5;entryY=0;entryDx=0;entryDy=0;" edge="1" parent="1" source="119" target="99">
                    <mxGeometry x="-0.0034" relative="1" as="geometry">
                        <mxPoint x="-100" y="80" as="sourcePoint"/>
                        <mxPoint x="120" y="99.41" as="targetPoint"/>
                        <mxPoint as="offset"/>
                    </mxGeometry>
                </mxCell>
                <mxCell id="115" value="1" style="resizable=0;html=1;align=left;verticalAlign=top;labelBackgroundColor=none;fontSize=10" connectable="0" vertex="1" parent="114">
                    <mxGeometry x="-0.9" relative="1" as="geometry">
                        <mxPoint x="6" as="offset"/>
                    </mxGeometry>
                </mxCell>
                <mxCell id="117" value="{ordered} 0..*" style="resizable=0;html=1;align=right;verticalAlign=top;labelBackgroundColor=none;fontSize=10" connectable="0" vertex="1" parent="114">
                    <mxGeometry x="0.9" relative="1" as="geometry"/>
                </mxCell>
                <mxCell id="118" value="1...n" style="resizable=0;html=1;align=right;verticalAlign=bottom;labelBackgroundColor=none;fontSize=10" connectable="0" vertex="1" parent="114">
                    <mxGeometry x="0.9" relative="1" as="geometry">
                        <mxPoint x="30" as="offset"/>
                    </mxGeometry>
                </mxCell>
                <mxCell id="119" value="Main" style="swimlane;fontStyle=1;align=center;verticalAlign=top;childLayout=stackLayout;horizontal=1;startSize=26;horizontalStack=0;resizeParent=1;resizeParentMax=0;resizeLast=0;collapsible=1;marginBottom=0;fillColor=#f5f5f5;strokeColor=#666666;fontColor=#333333;fontSize=14;" vertex="1" parent="1">
                    <mxGeometry x="-90" y="-30" width="180" height="96" as="geometry"/>
                </mxCell>
                <mxCell id="120" value="+ DisplayMenu ()" style="text;strokeColor=#666666;fillColor=#f5f5f5;align=left;verticalAlign=top;spacingLeft=4;spacingRight=4;overflow=hidden;rotatable=0;points=[[0,0.5],[1,0.5]];portConstraint=eastwest;fontColor=#333333;fontSize=14;" vertex="1" parent="119">
                    <mxGeometry y="26" width="180" height="62" as="geometry"/>
                </mxCell>
                <mxCell id="121" value="" style="line;strokeWidth=1;fillColor=#f5f5f5;align=left;verticalAlign=middle;spacingTop=-1;spacingLeft=3;spacingRight=3;rotatable=0;labelPosition=right;points=[];portConstraint=eastwest;strokeColor=#666666;fontColor=#333333;fontSize=14;" vertex="1" parent="119">
                    <mxGeometry y="88" width="180" height="8" as="geometry"/>
                </mxCell>
                <mxCell id="124" value="The Activity class is the superclass that contains the properties to be inherited by the subclasses.&lt;br&gt;It also has 2 setter methods of the starting and ending messages respectively.&lt;br&gt;and the method Pause, that pauses the excecution of a game and waits for confirmation from the user to resume the activity while showing an animation. The Timer method is the one incharge of running X methods from the Activity Class, and control the outputs. The DisplayAnimation is incharge of a displaying the animation while the program is paused." style="whiteSpace=wrap;html=1;fontSize=14;fillColor=#f5f5f5;strokeColor=#666666;fontColor=#333333;" vertex="1" parent="1">
                    <mxGeometry x="168" y="163.13" width="311" height="220" as="geometry"/>
                </mxCell>
            </root>
        </mxGraphModel>
    </diagram>
</mxfile>